<?xml version="1.0" encoding="utf-8"?>
<!-- Generator: Adobe Illustrator 23.0.3, SVG Export Plug-In . SVG Version: 6.00 Build 0)  -->
<svg version="1.1" id="Layer_1" xmlns="http://www.w3.org/2000/svg" xmlns:xlink="http://www.w3.org/1999/xlink" x="0px" y="0px"
	 viewBox="0 0 500 500" style="enable-background:new 0 0 500 500;" xml:space="preserve">
  <!-- Starfield Background -->
    <rect x="0" y="0" width="500" height="500" rx="30" fill="black" />
    
    <!-- Stars -->
    <circle cx="50" cy="50" r="2" fill="white" />
    <circle cx="150" cy="100" r="3" fill="white" />
    <circle cx="400" cy="50" r="2" fill="white" />
    <circle cx="300" cy="200" r="3" fill="white" />
    <circle cx="450" cy="300" r="2" fill="white" />
    <circle cx="100" cy="400" r="3" fill="white" />
    <circle cx="350" cy="450" r="2" fill="white" />
    <circle cx="200" cy="350" r="3" fill="white" />
    
    <!-- Mars Planet -->
    <circle cx="250" cy="250" r="220" fill="#b22222" stroke="#8b0000" stroke-width="8" />
    
    <!-- Surface details -->
    <ellipse cx="180" cy="160" rx="48" ry="24" fill="#a52a2a" />
    <ellipse cx="320" cy="290" rx="64" ry="32" fill="#8b0000" />
    <ellipse cx="240" cy="370" rx="40" ry="16" fill="#a52a2a" />
    <ellipse cx="290" cy="110" rx="32" ry="16" fill="#8b0000" />
    
    <!-- Additional surface details -->
    <ellipse cx="130" cy="240" rx="32" ry="16" fill="#8b0000" />
    <ellipse cx="350" cy="220" rx="56" ry="24" fill="#a52a2a" />
    <ellipse cx="140" cy="320" rx="24" ry="12" fill="#8b0000" />
    <ellipse cx="320" cy="140" rx="40" ry="20" fill="#a52a2a" />
    <ellipse cx="400" cy="300" rx="48" ry="22" fill="#8b0000" />
    
    <!-- Complex surface features -->
    <path d="M140 120 Q180 80, 220 120 T300 120" fill="none" stroke="#8b0000" stroke-width="5" />
    <path d="M90 280 Q160 200, 230 280 T350 280" fill="none" stroke="#a52a2a" stroke-width="5" />
    <circle cx="260" cy="260" r="16" fill="#8b0000" stroke="#5a0000" stroke-width="3" />
    <rect x="210" y="310" width="40" height="24" fill="#a52a2a" stroke="#5a0000" stroke-width="3" rx="8" />
</svg>